<?xml version="1.0" encoding="UTF-8" standalone="no"?>
<svg width="228px" height="40px" viewBox="0 0 228 40" version="1.1" xmlns="http://www.w3.org/2000/svg" xmlns:xlink="http://www.w3.org/1999/xlink" xmlns:sketch="http://www.bohemiancoding.com/sketch/ns">
    <!-- Generator: Sketch Beta 3.4 (14672) - http://www.bohemiancoding.com/sketch -->
    <title>The_Guardian</title>
    <desc>Created with Sketch Beta.</desc>
    <defs></defs>
    <g id="Page-1" stroke="none" stroke-width="1" fill="none" fill-rule="evenodd" sketch:type="MSPage">
        <g id="Home" sketch:type="MSArtboardGroup" transform="translate(-162.000000, -812.000000)" fill="#222222">
            <g id="Press" sketch:type="MSLayerGroup" transform="translate(162.000000, 812.000000)">
                <g id="The_Guardian" sketch:type="MSShapeGroup">
                    <path d="M188.376214,11.4866667 L186.924957,15.7066667 L183.373371,15.7066667 L183.373371,10.2833333 C185.297286,9.68666667 188.0134,8.71333333 191.638214,8.71333333 C197.140343,8.71333333 200.066157,10.8833333 200.066157,15.52 L200.066157,26.7566667 L202.499343,27.77 L202.499343,29.58 C201.8303,29.94 199.809857,30.4 198.152229,30.4 C196.001971,30.4 194.324371,29.7133333 194.004829,27.4866667 L193.818429,27.4866667 C192.903071,29.3366667 190.463229,30.44 187.900229,30.44 C184.2388,30.44 181.938757,28.0866667 181.938757,24.6466667 C181.938757,20.4166667 184.731429,19.4866667 189.258286,18.5466667 L193.212629,17.8733333 L193.212629,15.3766667 C193.212629,12.72 192.413771,11.4 189.780871,11.4 C189.438029,11.4 188.792286,11.45 188.376214,11.4866667 M193.212629,25.9133333 L193.212629,20.0766667 L191.618243,20.2333333 C190.030514,20.3866667 188.729043,21.4433333 188.729043,23.42 C188.729043,25.7 189.980586,26.7 191.2987,26.7 C192.060943,26.7 192.8365,26.3266667 193.212629,25.9133333" id="Fill-3"></path>
                    <path d="M114.022586,11.4866667 L112.568,15.7066667 L109.019743,15.7066667 L109.019743,10.2833333 C110.943657,9.68666667 113.659771,8.71333333 117.281257,8.71333333 C122.786714,8.71333333 125.712529,10.8833333 125.712529,15.52 L125.712529,26.7566667 L128.145714,27.77 L128.145714,29.58 C127.473343,29.94 125.456229,30.4 123.7986,30.4 C121.648343,30.4 119.970743,29.7133333 119.654529,27.4866667 L119.4648,27.4866667 C118.549443,29.3366667 116.1096,30.44 113.5466,30.44 C109.885171,30.44 107.588457,28.0866667 107.588457,24.6466667 C107.588457,20.4166667 110.3778,19.4866667 114.904657,18.5466667 L118.859,17.8733333 L118.859,15.3766667 C118.859,12.72 118.060143,11.4 115.427243,11.4 C115.0844,11.4 114.438657,11.45 114.022586,11.4866667 M118.859,25.9133333 L118.859,20.0766667 L117.264614,20.2333333 C115.676886,20.3866667 114.375414,21.4433333 114.375414,23.42 C114.375414,25.7 115.630286,26.7 116.9484,26.7 C117.707314,26.7 118.482871,26.3266667 118.859,25.9133333" id="Fill-4"></path>
                    <path d="M3.30431429,24.1566667 L3.30431429,12.7133333 L0.138842857,12.7133333 L0.138842857,9.58666667 L3.30431429,9.16333333 L3.30431429,5.25666667 L10.1278857,4.3 L10.1278857,9.16333333 L14.6580714,9.16333333 L14.6580714,12.7133333 L10.1278857,12.7133333 L10.1278857,23.5566667 C10.1278857,25.58 10.6970714,26.6233333 12.6942143,26.6233333 C13.4131857,26.6233333 14.3851286,26.5433333 14.8810857,26.46 L14.8810857,29.1333333 C13.7626857,29.78 11.4360143,30.33 9.28575714,30.33 C5.21158571,30.33 3.30431429,28.5333333 3.30431429,24.1566667" id="Fill-5"></path>
                    <path d="M47.4544857,20.1533333 L59.7568857,20.1533333 C59.7568857,11.4733333 56.7778143,8.71333333 50.5966571,8.71333333 C44.4454571,8.71333333 40.4112286,12.68 40.4112286,19.4833333 C40.4112286,26.5133333 44.0693286,30.4 51.1591857,30.4 C54.9737286,30.4 58.0493286,28.7166667 59.0013,27.41 L59.0013,25.39 C57.5700143,25.84 56.0987857,26.1033333 53.4559,26.1033333 C49.7345571,26.1033333 47.8206286,24.1766667 47.4544857,20.1533333 M50.4801571,11.2233333 C52.1977,11.2233333 53.1197143,11.96 53.1197143,17.3533333 L47.3945714,17.6866667 C47.3945714,12.8233333 48.3066,11.2233333 50.4801571,11.2233333" id="Fill-6"></path>
                    <path d="M75.2647,25.4966667 L68.3945286,25.4966667 C67.3560143,25.4966667 66.6903,24.8133333 66.6903,24.1033333 C66.6903,23.55 66.8400857,22.7133333 67.3360429,22.3066667 C68.4611,22.6466667 69.7326143,22.8166667 71.1139714,22.8166667 C76.4330286,22.8166667 80.0744857,20.4833333 80.0744857,15.9933333 C80.0744857,13.9633333 79.3621714,12.8266667 78.0407286,11.6466667 L78.1106286,11.4733333 L81.6855143,12.5733333 L81.6855143,8.69333333 L81.2860857,8.69333333 L76.1567571,9.61 L75.8638429,9.61 C74.5856714,9.13666667 72.7716,8.75 71.1139714,8.75 C65.7982429,8.75 62.1168429,11.2966667 62.1168429,15.7833333 C62.1168429,18.52 63.2352429,20.53 65.5086571,21.6866667 L65.5086571,21.9 C63.6180286,23.3033333 62.0769,25.2 62.0769,26.8833333 C62.0769,28.4866667 63.2086143,30.35 65.3988143,30.8733333 L65.3988143,31.09 C63.5215,31.7466667 60.8353429,32.45 60.8353429,34.6933333 C60.8353429,37.46 64.2737571,39.37 70.7644714,39.37 C78.8262714,39.37 82.4411,36.0866667 82.4411,31.17 C82.4411,27.1333333 79.8181857,25.4966667 75.2647,25.4966667 M71.1139714,11.2266667 C72.6051714,11.2266667 73.5737857,12.3266667 73.5737857,15.7833333 C73.5737857,19.2333333 72.5918571,20.1166667 71.1139714,20.1166667 C69.6394143,20.1166667 68.6807857,19.2333333 68.6807857,15.7833333 C68.6807857,12.3266667 69.6227714,11.2266667 71.1139714,11.2266667 M70.9309,36.66 C67.1829286,36.66 65.5585857,35.7166667 65.5585857,34.28 C65.5585857,33.2733333 65.8581571,32.3566667 66.5205429,31.7666667 L74.6023143,31.7666667 C76.2998857,31.7666667 77.618,32.01 77.618,33.5433333 C77.618,35.6733333 75.6142,36.66 70.9309,36.66" id="Fill-7"></path>
                    <path d="M169.4433,10.0633333 L169.4433,12.1866667 L171.986329,13.2533333 L171.986329,26.7566667 L169.549814,27.77 L169.549814,29.92 L181.293014,29.92 L181.293014,27.77 L178.849843,26.7566667 L178.849843,8.69 L178.274,8.69 L169.4433,10.0633333" id="Fill-8"></path>
                    <path d="M129.051086,10.0633333 L129.051086,12.1866667 L131.597443,13.2533333 L131.597443,26.7566667 L129.1576,27.77 L129.1576,29.92 L141.772886,29.92 L141.772886,27.77 L138.464286,26.7566667 L138.457629,15.52 C139.629286,14.9566667 141.173743,14.7733333 143.0211,14.7733333 C143.6269,14.7733333 144.342543,14.8466667 144.758614,14.9566667 L144.758614,8.93666667 C144.532271,8.86 144.079586,8.82666667 143.736743,8.82666667 C141.473314,8.82666667 139.629286,10.2833333 138.417686,13.05 L138.191343,13.05 L138.191343,8.69 L137.6155,8.69 L129.051086,10.0633333" id="Fill-9"></path>
                    <path d="M175.398114,0.186666667 C177.4119,0.186666667 179.039571,1.81333333 179.039571,3.82666667 C179.039571,5.84333333 177.4119,7.47666667 175.398114,7.47666667 C173.387657,7.47666667 171.756657,5.84333333 171.756657,3.82666667 C171.756657,1.81333333 173.387657,0.186666667 175.398114,0.186666667" id="Fill-10"></path>
                    <path d="M159.064814,26.2633333 L159.064814,12.2966667 C158.5389,11.8866667 157.976371,11.5533333 156.731486,11.5533333 C154.5779,11.5533333 152.933586,13.5 152.933586,19.3366667 C152.933586,24.4466667 154.241714,26.6666667 156.9545,26.6666667 C158.009657,26.6666667 158.602143,26.4533333 159.064814,26.2633333 M159.068143,4.76666667 L156.282129,3.70333333 L156.282129,1.58333333 L165.359143,0.206666667 L165.934986,0.206666667 L165.934986,26.12 L168.361514,27.3166667 L168.361514,29.3566667 L159.956871,30.28 L159.374371,30.2766667 L159.374371,28.1266667 L159.1447,28.1266667 C158.289257,29.2233333 156.515129,30.3666667 153.955457,30.3666667 C150.180857,30.3666667 145.693943,27.9733333 145.693943,20.0433333 C145.693943,11.7066667 150.284043,8.71 155.749557,8.71 C156.877943,8.71 158.239329,8.97333333 159.068143,9.57 L159.068143,4.76666667" id="Fill-11"></path>
                    <path d="M85.2271143,13.2533333 L82.6741,12.1866667 L82.6741,10.0633333 L91.5081286,8.69 L92.0839714,8.69 L92.0839714,23.2633333 C92.0839714,25.62 93.2356571,26.0333333 94.9698429,26.0333333 C96.2513429,26.0333333 96.7572857,25.81 97.4363143,25.5466667 L97.4363143,13.2533333 L94.8866286,12.1866667 L94.8866286,10.0633333 L103.723986,8.69 L104.299829,8.69 L104.299829,26.3666667 L106.8362,27.5666667 L106.8362,29.3566667 L98.2518143,30.28 L97.6693143,30.2766667 L97.6626571,27.5266667 L97.4363143,27.5266667 C96.1148714,29.17 93.9413143,30.3666667 91.1519714,30.3666667 C87.0012429,30.3666667 85.2271143,27.4066667 85.2271143,23.82 L85.2271143,13.2533333" id="Fill-12"></path>
                    <path d="M16.1559286,27.7666667 L18.5924429,26.7566667 L18.5924429,4.75333333 L16.0460857,3.68666667 L16.0460857,1.56333333 L24.8068857,0.193333333 L25.3794,0.193333333 L25.3794,11.4433333 L25.6090714,11.4433333 C27.4531,9.76333333 29.9428714,8.71333333 32.7322143,8.71333333 C36.2039143,8.71333333 37.9381,10.45 37.9381,14.24 L37.9381,26.7566667 L40.3812714,27.7666667 L40.3812714,29.92 L28.8744,29.92 L28.8744,27.7666667 L31.0712571,26.7566667 L31.0712571,16.0266667 C31.0712571,13.9333333 30.1459143,13.1433333 28.2852429,13.1433333 C27.2667,13.1433333 26.2881,13.33 25.4559571,13.67 L25.4559571,26.7566667 L27.6528143,27.7666667 L27.6528143,29.92 L16.1559286,29.92 L16.1559286,27.7666667" id="Fill-13"></path>
                    <path d="M203.734243,27.7666667 L206.1641,26.7566667 L206.1641,13.2533333 L203.617743,12.1866667 L203.617743,10.0633333 L212.381871,8.69 L212.957714,8.69 L212.957714,11.4433333 L213.180729,11.4433333 C215.031414,9.76333333 217.514529,8.71333333 220.3072,8.71333333 C223.775571,8.71333333 225.506429,10.45 225.506429,14.24 L225.506429,26.7566667 L227.956257,27.7666667 L227.956257,29.92 L216.446057,29.92 L216.446057,27.7666667 L218.646243,26.7566667 L218.646243,16.0266667 C218.646243,13.9333333 217.724229,13.1433333 215.860229,13.1433333 C214.838357,13.1433333 213.863086,13.33 213.030943,13.67 L213.030943,26.7566667 L215.231129,27.7666667 L215.231129,29.92 L203.734243,29.92 L203.734243,27.7666667" id="Fill-14"></path>
                </g>
            </g>
        </g>
    </g>
</svg>