<?xml version="1.0" encoding="UTF-8" standalone="no"?>
<svg width="222px" height="30px" viewBox="0 0 222 30" version="1.1" xmlns="http://www.w3.org/2000/svg" xmlns:xlink="http://www.w3.org/1999/xlink" xmlns:sketch="http://www.bohemiancoding.com/sketch/ns">
    <!-- Generator: Sketch Beta 3.4 (14672) - http://www.bohemiancoding.com/sketch -->
    <title>The Memo Logo Bodoni Black</title>
    <desc>Created with Sketch Beta.</desc>
    <defs></defs>
    <g id="Page-1" stroke="none" stroke-width="1" fill="none" fill-rule="evenodd" sketch:type="MSPage">
        <g id="Home" sketch:type="MSArtboardGroup" transform="translate(-460.000000, -813.000000)" fill="#1A1918">
            <g id="Press" sketch:type="MSLayerGroup" transform="translate(162.000000, 812.000000)">
                <g id="The-Memo-Logo-Bodoni-Black" transform="translate(298.000000, 1.000000)" sketch:type="MSShapeGroup">
                    <path d="M54.1308762,9.08792784 C54.1308762,9.42875258 53.9735874,9.59885567 53.65901,9.59885567 C53.344123,9.59885567 53.1208845,9.25864948 52.9899138,8.57730928 C52.9375874,8.10565979 52.8852611,7.63401031 52.8329347,7.1626701 C52.6490184,6.21968041 52.3471356,5.42081443 51.9282151,4.76576289 C51.3770854,3.9013299 50.4726753,3.35112371 49.2137464,3.11545361 C48.4006753,2.95834021 47.7448929,2.89308247 47.2470184,2.91906186 C46.0140979,2.95401031 45.2666669,2.98029897 45.0047255,2.99761856 L45.0047255,26.7276186 C45.0047255,27.6721546 45.2536628,28.262567 45.7521565,28.4979278 C46.0140979,28.6296804 46.7485247,28.7088557 47.9551272,28.7342165 C48.2697046,28.7589588 48.4269933,28.8706082 48.4269933,29.0682371 C48.4269933,29.2912268 48.216759,29.4022577 47.7978385,29.4022577 C47.5872946,29.4022577 47.4043071,29.3889588 47.2470184,29.3629794 C45.6735121,29.3110206 44.5585582,29.2844227 43.903395,29.2844227 C43.0379975,29.2844227 42.2249264,29.3045258 41.4644912,29.3438041 C40.7037464,29.3830825 39.7336962,29.4022577 38.5534117,29.4022577 C37.9499556,29.4022577 37.6490017,29.2971031 37.6490017,29.0877216 C37.6490017,28.8520515 38.2125163,28.720299 39.3401649,28.693701 C40.1526167,28.693701 40.6777381,28.5239072 40.9136711,28.1827732 C41.0446418,27.9724639 41.110282,27.4349381 41.110282,26.569268 L41.110282,2.99761856 C38.5140895,3.02390722 36.9015707,3.15473196 36.2717967,3.39040206 C34.619646,3.99349485 33.6495958,5.60421649 33.3610268,8.22349485 C33.2823824,9.00937113 33.0984661,9.40246392 32.8105163,9.40246392 C32.4956293,9.40246392 32.3383406,9.12720619 32.3383406,8.57730928 C32.3383406,8.28906186 32.3510351,8.00112371 32.3776628,7.71256701 L32.4563071,6.80885567 C32.5349515,5.60421649 32.652918,4.01916495 32.8105163,2.05462887 L34.5803238,2.05462887 L42.6051439,2.17246392 C43.5491858,2.19875258 45.0174201,2.19875258 47.0110854,2.17246392 L53.5410435,2.05462887 C53.5933699,3.52184536 53.7633531,5.69576289 54.0522318,8.57730928 C54.0522318,8.65586598 54.065236,8.75390722 54.091554,8.87174227 C54.1172527,8.9898866 54.1308762,9.06225773 54.1308762,9.08792784" id="Fill-1"></path>
                    <path d="M81.5878795,29.0096598 C81.5878795,29.2453299 81.3401808,29.3631649 80.8460218,29.3631649 L75.4598126,29.3631649 L73.859369,29.3631649 L72.2982477,29.3631649 C71.7774611,29.3631649 71.517687,29.2586289 71.517687,29.0495567 C71.517687,28.8404845 72.1260971,28.6966701 73.3432268,28.6181134 C73.9903397,28.5667732 74.365913,28.4557423 74.4699464,28.2859485 C74.573051,28.1161546 74.6253774,27.5084227 74.6253774,26.4636804 L74.6253774,15.0213093 L62.7847582,15.0213093 L62.7847582,26.1411031 C62.7847582,27.3200722 62.8764067,28.0140928 63.0600134,28.2237835 C63.2433105,28.4334742 63.8597707,28.5772887 64.9090845,28.6555361 C65.5905657,28.708732 65.9320803,28.826567 65.9320803,29.0096598 C65.9320803,29.2453299 65.6695197,29.3631649 65.1453272,29.3631649 L64.791118,29.3631649 L62.8045741,29.3631649 L61.5654611,29.3631649 L59.9133105,29.3631649 L56.6090092,29.3631649 C56.0841975,29.3631649 55.8222561,29.2586289 55.8222561,29.0495567 C55.8222561,28.8404845 56.0841975,28.7099691 56.6090092,28.6567732 C56.949595,28.6314124 57.3034946,28.6048144 57.6710176,28.5782165 C58.2475364,28.5262577 58.615369,28.395433 58.7723481,28.1863608 C58.8509925,28.0552268 58.8903146,27.3231649 58.8903146,25.9886289 L58.8903146,5.27285567 C58.8903146,4.09574227 58.8314862,3.40264948 58.7135197,3.19326804 C58.5955531,2.98481443 58.1825155,2.8666701 57.4744067,2.84038144 C56.6610259,2.7853299 56.1823481,2.7438866 56.0383732,2.71636082 C55.8943983,2.68914433 55.8222561,2.57904124 55.8222561,2.38543299 C55.8222561,2.16491753 55.992549,2.05450515 56.333754,2.05450515 C56.4380971,2.05450515 56.6610259,2.0681134 57.0025406,2.09378351 C57.6577038,2.1466701 59.2052017,2.17234021 61.6441054,2.17234021 C62.981369,2.17234021 63.9120971,2.15285567 64.4369088,2.11357732 C64.6202059,2.07429897 64.8561389,2.05450515 65.1453272,2.05450515 C65.6171933,2.05450515 65.8531264,2.18594845 65.8531264,2.44883505 C65.8531264,2.68574227 65.4267749,2.80357732 64.5746912,2.80357732 C63.7222979,2.80357732 63.2108,2.90223711 63.0405071,3.0995567 C62.869595,3.29656701 62.7847582,3.921 62.7847582,4.97192784 L62.7847582,14.0390412 L74.6253774,14.0390412 L74.6253774,5.56326804 C74.6253774,4.17058763 74.5201054,3.34945361 74.3104904,3.0995567 C74.1002561,2.85027835 73.3664485,2.73862887 72.1078293,2.76429897 C71.7142979,2.76429897 71.517687,2.64646392 71.517687,2.40924742 C71.517687,2.17295876 71.7399967,2.05450515 72.1864736,2.05450515 L72.3830845,2.05450515 L74.3104904,2.05450515 L76.4345071,2.05450515 L79.6799799,2.05450515 L80.7618042,2.05450515 C81.3123146,2.05450515 81.5878795,2.17234021 81.5878795,2.40801031 C81.5878795,2.64368041 81.0107414,2.77543299 79.8570845,2.80110309 C79.5161891,2.80110309 79.2669423,2.82739175 79.1096536,2.87965979 C78.8470929,2.95821649 78.6829925,3.10234021 78.6179715,3.31203093 C78.5520218,3.52172165 78.5195113,4.13718557 78.5195113,5.15873196 L78.5195113,26.0625464 C78.5195113,27.3200722 78.5842226,28.0533711 78.7139548,28.2630619 C78.9728,28.5519278 79.7236368,28.6948144 80.9664653,28.6948144 C81.3807414,28.6428557 81.5878795,28.7480103 81.5878795,29.0096598" id="Fill-3"></path>
                    <path d="M104.835645,23.0367216 C104.835645,23.1418763 104.809327,23.7833196 104.757001,24.9625979 C104.704055,26.1409485 104.678356,27.2676495 104.678356,28.3414639 L104.678356,29.6385773 C102.107863,29.4808454 97.0207498,29.4022887 89.4154695,29.4022887 L86.7016201,29.4022887 L84.8918711,29.4022887 L84.4983397,29.4022887 C84.0001556,29.4022887 83.7512184,29.297134 83.7512184,29.0865155 C83.7512184,28.9454845 83.8298628,28.8635258 83.9871515,28.8400206 C84.0657958,28.8400206 84.5636703,28.8047629 85.4820134,28.7342474 C86.1634946,28.6822887 86.5765322,28.5378557 86.7211264,28.3009485 C86.8647916,28.0649691 86.9372435,27.4470309 86.9372435,26.4483711 L86.9372435,4.29909278 C86.9372435,3.53734021 86.8254695,3.08393814 86.6031598,2.93919588 C86.380231,2.79507216 85.6653105,2.72239175 84.4590176,2.72239175 C84.0394778,2.72239175 83.8298628,2.61136082 83.8298628,2.38837113 C83.8298628,2.16630928 84.1181222,2.05465979 84.6952603,2.05465979 L91.4218293,2.05465979 L95.8667833,2.05465979 L101.374055,2.05465979 C102.160808,2.05465979 102.881612,2.00239175 103.537704,1.89723711 C103.59003,3.02393814 103.707687,4.58270103 103.891603,6.57321649 L104.048892,8.26280412 C104.0749,8.39424742 104.088524,8.56435052 104.088524,8.77373196 C104.088524,9.03569072 103.970248,9.16651546 103.734315,9.16651546 C103.445436,9.16651546 103.235821,8.8374433 103.10485,8.17806186 C102.606666,5.80589691 101.793285,4.30280412 100.665946,3.66971134 C99.8262477,3.19589691 97.6235866,2.95837113 94.0573439,2.95837113 L90.831687,2.95837113 L90.831687,14.5105361 L91.7757289,14.5105361 C94.7128167,14.5105361 96.5024402,14.2881649 97.1452184,13.8424948 C97.787687,13.3974433 98.2270427,12.1006392 98.4632854,9.95239175 C98.5153021,9.40249485 98.6598962,9.12723711 98.8958293,9.12723711 C99.1840887,9.12723711 99.3286828,9.36321649 99.3286828,9.8345567 C99.3286828,10.3058969 99.3020552,11.0005361 99.2500385,11.9169278 C99.1970929,12.8342474 99.1710845,13.5279588 99.1710845,13.9996082 C99.1710845,16.8029072 99.2131933,18.7281649 99.2971013,19.7756907 C99.3181556,20.0379588 99.3286828,20.2606392 99.3286828,20.443732 C99.3286828,20.7842474 99.1847079,20.9546598 98.897687,20.9546598 C98.71439,20.9546598 98.5908502,20.8433196 98.5258293,20.6203299 C98.4608084,20.398268 98.3496536,19.6714639 98.1932937,18.4396082 C97.9842979,16.8944536 97.3446159,15.9384742 96.2745573,15.5713608 C95.8042393,15.4142474 94.5775113,15.3356907 92.5940636,15.3356907 L90.831687,15.3356907 L90.831687,28.4985773 C96.6005908,28.4985773 99.983846,28.3825979 100.980833,28.1494021 C102.711628,27.761567 103.694992,26.1053814 103.930926,23.1817732 C103.983252,22.5353814 104.153545,22.211567 104.442114,22.211567 C104.704055,22.211567 104.835645,22.487134 104.835645,23.0367216" id="Fill-5"></path>
                    <path d="M142.322776,29.1075155 C142.322776,29.3305052 142.04814,29.4415361 141.499797,29.4415361 L141.068182,29.4415361 L139.068943,29.4415361 L136.8347,29.4415361 L134.090198,29.4415361 L131.973613,29.4415361 L131.698667,29.4415361 C131.150014,29.4415361 130.875688,29.323701 130.875688,29.0877216 C130.875688,28.8254536 131.255596,28.693701 132.01665,28.693701 C133.353914,28.693701 134.166366,28.5498866 134.455554,28.2613299 C134.586525,28.1295773 134.652165,27.2512268 134.652165,25.6238041 L134.652165,5.23710309 C134.652165,5.26370103 134.494257,5.72236082 134.17937,6.61246392 C133.126031,9.78040206 131.598039,14.5460722 129.596014,20.9085464 L127.769546,27.1630825 C127.402023,28.3940103 127.139462,29.0097835 126.982173,29.0097835 C126.797638,29.0097835 126.601027,28.6949381 126.391412,28.0667938 C125.634382,25.6819485 123.493027,19.7320515 119.967345,10.2177216 L118.405295,6.02297938 C118.405295,6.52091753 118.405914,7.20194845 118.405914,8.06638144 L118.405914,20.8367938 C118.405914,25.6306082 118.445546,28.0534948 118.52419,28.1060722 C118.707177,28.4465876 119.336642,28.6163814 120.411964,28.6163814 C121.277362,28.6163814 121.710525,28.7475155 121.710525,29.0079278 C121.710525,29.2971031 121.43496,29.4415361 120.884449,29.4415361 C120.542935,29.4415361 120.228667,29.4155567 119.940098,29.3629794 C119.572575,29.3110206 119.244993,29.2844227 118.956734,29.2844227 L114.433136,29.4415361 C113.96096,29.4415361 113.725027,29.323701 113.725027,29.0877216 C113.725027,28.8254536 114.472458,28.6810206 115.96701,28.6544227 C116.596474,28.6544227 116.963688,28.5505052 117.06865,28.3405052 C117.172993,28.1301959 117.225939,27.4482371 117.225939,26.2930825 L117.225939,7.44442268 C117.225939,5.26741237 117.199311,4.08658763 117.146985,3.90318557 C117.042332,3.53607216 116.819094,3.28679381 116.478508,3.15535052 C116.137613,3.02390722 115.402876,2.91906186 114.275537,2.84019588 C113.855997,2.81452577 113.646382,2.69669072 113.646382,2.48669072 C113.646382,2.19875258 114.030315,2.05462887 114.79973,2.05462887 L115.476567,2.05462887 L117.545161,2.05462887 C119.109688,2.05462887 120.210709,2.04473196 120.847604,2.02493814 C120.976408,2.36638144 121.736843,4.42741237 123.129529,8.20803093 C123.726792,9.78102062 125.402474,14.3691649 128.157194,21.9712268 C128.652901,20.2655567 129.160993,18.5864845 129.683018,16.9330825 L133.888324,3.94926804 C134.147479,3.20205155 134.378148,2.58318557 134.580332,2.09328866 L140.414567,2.05462887 C141.270056,2.05462887 141.762048,2.09452577 141.89178,2.17308247 C142.021512,2.25163918 142.086843,2.37009278 142.086843,2.52720619 C142.086843,2.79009278 141.863914,2.92153608 141.418056,2.92153608 C140.683629,2.92153608 140.185136,2.94782474 139.923194,3.00071134 C139.294039,3.1055567 138.861186,3.3155567 138.625253,3.63102062 C138.493663,3.81535052 138.428642,5.35215464 138.428642,8.24205155 L138.428642,26.5667938 C138.428642,27.6180309 138.532985,28.2353505 138.74291,28.4187526 C139.083805,28.6556598 139.936198,28.7741134 141.30009,28.7741134 L141.536023,28.7741134 C142.060215,28.7741134 142.322776,28.8857629 142.322776,29.1075155" id="Fill-7"></path>
                    <path d="M164.744466,23.0367216 C164.744466,23.1418763 164.718148,23.7833196 164.665822,24.9625979 C164.612876,26.1409485 164.587177,27.2676495 164.587177,28.3414639 L164.587177,29.6385773 C162.016684,29.4808454 156.929571,29.4022887 149.32429,29.4022887 L146.610441,29.4022887 L144.800692,29.4022887 L144.407161,29.4022887 C143.908977,29.4022887 143.660039,29.297134 143.660039,29.0865155 C143.660039,28.9454845 143.738684,28.8635258 143.895972,28.8400206 C143.974617,28.8400206 144.472491,28.8047629 145.390834,28.7342474 C146.072315,28.6822887 146.485353,28.5378557 146.629947,28.3009485 C146.773613,28.0649691 146.846064,27.4470309 146.846064,26.4483711 L146.846064,4.29909278 C146.846064,3.53734021 146.73429,3.08393814 146.511981,2.93919588 C146.289052,2.79507216 145.574131,2.72239175 144.367838,2.72239175 C143.948299,2.72239175 143.738684,2.61136082 143.738684,2.38837113 C143.738684,2.16630928 144.026943,2.05465979 144.604081,2.05465979 L151.33065,2.05465979 L155.775604,2.05465979 L161.282876,2.05465979 C162.069629,2.05465979 162.790433,2.00239175 163.446525,1.89723711 C163.498851,3.02393814 163.616508,4.58270103 163.800424,6.57321649 L163.957713,8.26280412 C163.983721,8.39424742 163.997345,8.56435052 163.997345,8.77373196 C163.997345,9.03569072 163.879069,9.16651546 163.643136,9.16651546 C163.354257,9.16651546 163.144642,8.8374433 163.013671,8.17806186 C162.515487,5.80589691 161.702106,4.30280412 160.574767,3.66971134 C159.735069,3.19589691 157.532408,2.95837113 153.966165,2.95837113 L150.740508,2.95837113 L150.740508,14.5105361 L151.68455,14.5105361 C154.621638,14.5105361 156.411261,14.2881649 157.054039,13.8424948 C157.696508,13.3974433 158.135864,12.1006392 158.372106,9.95239175 C158.424123,9.40249485 158.568717,9.12723711 158.80465,9.12723711 C159.09291,9.12723711 159.237504,9.36321649 159.237504,9.8345567 C159.237504,10.3058969 159.210876,11.0005361 159.158859,11.9169278 C159.105914,12.8342474 159.079905,13.5279588 159.079905,13.9996082 C159.079905,16.8029072 159.122014,18.7281649 159.205922,19.7756907 C159.226977,20.0379588 159.237504,20.2606392 159.237504,20.443732 C159.237504,20.7842474 159.093529,20.9546598 158.806508,20.9546598 C158.623211,20.9546598 158.499671,20.8433196 158.43465,20.6203299 C158.369629,20.398268 158.258474,19.6714639 158.102115,18.4396082 C157.893119,16.8944536 157.253437,15.9384742 156.183378,15.5713608 C155.71306,15.4142474 154.486332,15.3356907 152.502885,15.3356907 L150.740508,15.3356907 L150.740508,28.4985773 C156.509412,28.4985773 159.892667,28.3825979 160.889654,28.1494021 C162.620449,27.761567 163.603813,26.1053814 163.839746,23.1817732 C163.892073,22.5353814 164.062366,22.211567 164.350935,22.211567 C164.612876,22.211567 164.744466,22.487134 164.744466,23.0367216" id="Fill-9"></path>
                    <path d="M194.915195,29.1075155 C194.915195,29.3305052 194.640559,29.4415361 194.092216,29.4415361 L193.660601,29.4415361 L191.661362,29.4415361 L189.42712,29.4415361 L186.682618,29.4415361 L184.566032,29.4415361 L184.291086,29.4415361 C183.742433,29.4415361 183.468107,29.323701 183.468107,29.0877216 C183.468107,28.8254536 183.848015,28.693701 184.609069,28.693701 C185.946333,28.693701 186.758785,28.5498866 187.047973,28.2613299 C187.178944,28.1295773 187.244584,27.2512268 187.244584,25.6238041 L187.244584,5.23710309 C187.244584,5.26370103 187.086676,5.72236082 186.771789,6.61246392 C185.71845,9.78040206 184.190459,14.5460722 182.188433,20.9085464 L180.361965,27.1630825 C179.994442,28.3940103 179.731881,29.0097835 179.574592,29.0097835 C179.390057,29.0097835 179.193446,28.6949381 178.983831,28.0667938 C178.226802,25.6819485 176.085446,19.7320515 172.559764,10.2177216 L170.997714,6.02297938 C170.997714,6.52091753 170.998333,7.20194845 170.998333,8.06638144 L170.998333,20.8367938 C170.998333,25.6306082 171.037965,28.0534948 171.116609,28.1060722 C171.299597,28.4465876 171.929061,28.6163814 173.004383,28.6163814 C173.869781,28.6163814 174.302944,28.7475155 174.302944,29.0079278 C174.302944,29.2971031 174.027379,29.4415361 173.476869,29.4415361 C173.135354,29.4415361 172.821086,29.4155567 172.532517,29.3629794 C172.164994,29.3110206 171.837413,29.2844227 171.549153,29.2844227 L167.025555,29.4415361 C166.553379,29.4415361 166.317446,29.323701 166.317446,29.0877216 C166.317446,28.8254536 167.064877,28.6810206 168.559429,28.6544227 C169.188894,28.6544227 169.556107,28.5505052 169.661069,28.3405052 C169.765413,28.1301959 169.818358,27.4482371 169.818358,26.2930825 L169.818358,7.44442268 C169.818358,5.26741237 169.791731,4.08658763 169.739404,3.90318557 C169.634751,3.53607216 169.411513,3.28679381 169.070927,3.15535052 C168.730032,3.02390722 167.995295,2.91906186 166.867956,2.84019588 C166.448417,2.81452577 166.238802,2.69669072 166.238802,2.48669072 C166.238802,2.19875258 166.622735,2.05462887 167.392149,2.05462887 L168.068986,2.05462887 L170.13758,2.05462887 C171.702107,2.05462887 172.803128,2.04473196 173.440023,2.02493814 C173.568827,2.36638144 174.329262,4.42741237 175.721948,8.20803093 C176.319212,9.78102062 177.994894,14.3691649 180.749613,21.9712268 C181.245321,20.2655567 181.753413,18.5864845 182.275438,16.9330825 L186.480743,3.94926804 C186.739898,3.20205155 186.970567,2.58318557 187.172751,2.09328866 L193.006986,2.05462887 C193.862475,2.05462887 194.354467,2.09452577 194.484199,2.17308247 C194.613931,2.25163918 194.679262,2.37009278 194.679262,2.52720619 C194.679262,2.79009278 194.456333,2.92153608 194.010475,2.92153608 C193.276049,2.92153608 192.777555,2.94782474 192.515613,3.00071134 C191.886459,3.1055567 191.453605,3.3155567 191.217672,3.63102062 C191.086082,3.81535052 191.021061,5.35215464 191.021061,8.24205155 L191.021061,26.5667938 C191.021061,27.6180309 191.125404,28.2353505 191.335329,28.4187526 C191.676224,28.6556598 192.528618,28.7741134 193.892509,28.7741134 L194.128442,28.7741134 C194.652634,28.7741134 194.915195,28.8857629 194.915195,29.1075155" id="Fill-11"></path>
                    <path d="M217.494422,16.0833711 C217.494422,11.2756392 216.510748,7.53151546 214.54402,4.85161856 C213.3111,3.17069072 211.593618,2.32945361 209.390957,2.32945361 C207.292639,2.32945361 205.666807,2.97368041 204.51315,4.26027835 C202.389133,6.6253299 201.326815,10.474299 201.326815,15.8068763 C201.326815,20.0371856 202.067434,23.3217216 203.549292,25.6595567 C205.030531,27.997701 207.109342,29.1667732 209.784489,29.1667732 C212.275719,29.1667732 214.150798,28.0635773 215.409727,25.856567 C216.799317,23.4135773 217.494422,20.1556392 217.494422,16.0833711 M221.900054,15.8857423 C221.900054,19.7891443 220.726271,23.0897629 218.379326,25.7875979 C216.03207,28.4860515 213.153501,29.8348144 209.745167,29.8348144 C206.125978,29.8348144 203.083618,28.4659485 200.618706,25.7285258 C198.153485,22.9914124 196.921183,19.6184227 196.921183,15.6104845 C196.921183,11.5239897 198.107351,8.17790722 200.481233,5.57130928 C202.854187,2.96502062 205.890045,1.66172165 209.587568,1.66172165 C213.075167,1.66172165 215.99956,3.02378351 218.359819,5.74821649 C220.720079,8.47295876 221.900054,11.8518247 221.900054,15.8857423" id="Fill-13"></path>
                    <path d="M29.6939088,15.0595052 C29.6939088,23.2191959 23.0729213,29.8318763 14.9056745,29.8318763 C6.73842762,29.8318763 0.117749791,23.2191959 0.117749791,15.0595052 C0.117749791,6.90136082 6.73842762,0.288371134 14.9056745,0.288371134 C23.0729213,0.288371134 29.6939088,6.90136082 29.6939088,15.0595052 Z M20.9110686,6.40438144 C21.1925163,6.40438144 21.3445414,6.55592784 21.3445414,6.83860825 L21.3445414,23.3410825 C21.3445414,23.6231443 21.1925163,23.7756186 20.9110686,23.7756186 L18.8882987,23.7756186 C18.6049933,23.7756186 18.4529682,23.6231443 18.4529682,23.3410825 L18.4529682,13.5697423 L18.3015623,13.5697423 L16.1499891,23.3834536 C16.0846586,23.6444845 15.9317046,23.7756186 15.6706921,23.7756186 L14.6062067,23.7756186 C14.3451941,23.7756186 14.1928594,23.6444845 14.1284577,23.3834536 L11.9759556,13.5697423 L11.8230017,13.5697423 L11.8230017,23.3410825 C11.8230017,23.6231443 11.6715958,23.7756186 11.3895289,23.7756186 L9.38905188,23.7756186 C9.10667531,23.7756186 8.95465021,23.6231443 8.95465021,23.3410825 L8.95465021,6.83860825 C8.95465021,6.55592784 9.10667531,6.40438144 9.38905188,6.40438144 L12.2583322,6.40438144 C12.5187255,6.40438144 12.6716795,6.53458763 12.73701,6.79438144 L15.1499054,17.6086082 L17.5628008,6.79438144 C17.6278218,6.53458763 17.7795372,6.40438144 18.0414787,6.40438144 L20.9110686,6.40438144 Z" id="Fill-15"></path>
                </g>
            </g>
        </g>
    </g>
</svg>