<?xml version="1.0" encoding="UTF-8" standalone="no"?>
<svg width="213px" height="30px" viewBox="0 0 213 30" version="1.1" xmlns="http://www.w3.org/2000/svg" xmlns:xlink="http://www.w3.org/1999/xlink" xmlns:sketch="http://www.bohemiancoding.com/sketch/ns">
    <!-- Generator: Sketch Beta 3.4 (14672) - http://www.bohemiancoding.com/sketch -->
    <title>tc-techcrunch</title>
    <desc>Created with Sketch Beta.</desc>
    <defs></defs>
    <g id="Page-1" stroke="none" stroke-width="1" fill="none" fill-rule="evenodd" sketch:type="MSPage">
        <g id="Home" sketch:type="MSArtboardGroup" transform="translate(-752.000000, -812.000000)" fill="#222222">
            <g id="Press" sketch:type="MSLayerGroup" transform="translate(162.000000, 812.000000)">
                <g id="tc-techcrunch" transform="translate(590.000000, 0.000000)" sketch:type="MSShapeGroup">
                    <path d="M80.0605287,11.72175 L80.0605287,25.0005 L75.2036047,25.0005 L75.2036047,11.72175 L70.2966222,11.72175 L70.2966222,7.4955 L84.9675111,7.4955 L84.9675111,11.72175 L80.0605287,11.72175 Z" id="Fill-1"></path>
                    <path d="M90.3472959,14.9225 C89.3210971,14.9225 88.7454246,15.6225 88.5952491,16.9225 L92.3508865,16.9225 C92.1243719,15.5975 91.6738456,14.9225 90.3472959,14.9225 M96.3055064,19.72375 L88.5952491,19.72375 C88.7454246,21.17375 89.5951673,21.82375 90.8228515,21.82375 C91.9741965,21.82375 92.9265591,21.57375 94.2280795,20.89875 L95.9538456,23.775 C94.3281965,24.72375 92.649986,25.275 90.5975883,25.275 C86.641717,25.275 84.4641731,22.47375 84.4641731,18.4475 C84.4641731,13.9225 87.0171556,11.59625 90.4724421,11.59625 C94.0766526,11.59625 96.3305357,13.9725 96.3305357,18.8475 C96.3305357,19.22375 96.3305357,19.49875 96.3055064,19.72375" id="Fill-2"></path>
                    <path d="M104.688925,25.274625 C100.834422,25.274625 98.5304807,22.824625 98.5304807,18.398375 C98.5304807,14.372125 100.58413,11.597125 104.789042,11.597125 C107.268188,11.597125 108.694855,12.747125 109.8462,14.597125 L106.742574,16.947125 C106.116843,15.797125 105.690095,15.247125 104.715206,15.247125 C103.562609,15.247125 102.986937,16.397125 102.986937,18.473375 C102.986937,20.549625 103.612668,21.623375 104.839101,21.623375 C105.690095,21.623375 106.290796,21.148375 107.116761,19.923375 L109.971346,22.148375 C108.444563,24.399625 107.016644,25.274625 104.688925,25.274625" id="Fill-4"></path>
                    <path d="M120.057254,25 L120.057254,17.5475 C120.057254,15.8475 119.481581,15.3975 118.555499,15.3975 C117.603137,15.3975 117.027464,15.8475 117.027464,17.4975 L117.027464,25 L112.522201,25 L112.522201,8.57125 L117.027464,6.77125 L117.027464,12.74625 C117.853429,12.12125 118.779511,11.59625 120.332575,11.59625 C123.212189,11.59625 124.588798,13.52125 124.588798,16.9725 L124.588798,25 L120.057254,25 Z" id="Fill-6"></path>
                    <path d="M135.375399,25.274625 C130.168065,25.274625 127.388568,21.423375 127.388568,16.247125 C127.388568,10.620875 130.69368,7.220875 135.400428,7.220875 C139.706709,7.220875 141.408697,9.070875 142.610101,12.372125 L138.204954,14.097125 C137.577972,12.472125 136.97727,11.445875 135.375399,11.445875 C133.34803,11.445875 132.472007,13.472125 132.472007,16.247125 C132.472007,18.923375 133.32175,21.048375 135.425457,21.048375 C136.952241,21.048375 137.603001,20.223375 138.554112,18.573375 L142.660159,20.748375 C141.483785,23.049625 139.530253,25.274625 135.375399,25.274625" id="Fill-8"></path>
                    <path d="M153.745234,16.8225 C153.169561,16.1975 152.520053,15.7225 151.642778,15.7225 C150.54024,15.7225 149.86445,16.2475 149.86445,17.8475 L149.86445,25 L145.359187,25 L145.359187,11.87125 L149.86445,11.87125 L149.86445,12.82125 C150.641608,12.07125 151.517632,11.59625 152.670228,11.59625 C153.620088,11.59625 154.272099,11.82125 154.797713,12.14625 L153.745234,16.8225 Z" id="Fill-10"></path>
                    <path d="M164.458499,25 L164.458499,24.12375 C163.656312,24.74875 162.706453,25.275 161.179669,25.275 C158.300055,25.275 156.923447,23.35 156.923447,19.8975 L156.923447,11.87125 L161.454991,11.87125 L161.454991,19.32375 C161.454991,21.0225 162.030663,21.47375 162.956745,21.47375 C163.882827,21.47375 164.458499,21.0225 164.458499,19.3725 L164.458499,11.87125 L168.990043,11.87125 L168.990043,25 L164.458499,25 Z" id="Fill-12"></path>
                    <path d="M179.776644,25 L179.776644,17.5475 C179.776644,15.8475 179.200972,15.3975 178.27489,15.3975 C177.322527,15.3975 176.746855,15.8475 176.746855,17.4975 L176.746855,25 L172.241592,25 L172.241592,11.87125 L176.746855,11.87125 L176.746855,12.74625 C177.57282,12.12125 178.498902,11.59625 180.051966,11.59625 C182.93158,11.59625 184.308188,13.52125 184.308188,16.9725 L184.308188,25 L179.776644,25 Z" id="Fill-14"></path>
                    <path d="M193.090573,25.274625 C189.23607,25.274625 186.932129,22.824625 186.932129,18.398375 C186.932129,14.372125 188.985778,11.597125 193.19069,11.597125 C195.669836,11.597125 197.096503,12.747125 198.247848,14.597125 L195.144222,16.947125 C194.518491,15.797125 194.091743,15.247125 193.116854,15.247125 C191.964257,15.247125 191.388585,16.397125 191.388585,18.473375 C191.388585,20.549625 192.014316,21.623375 193.240749,21.623375 C194.091743,21.623375 194.692444,21.148375 195.518409,19.923375 L198.372994,22.148375 C196.846211,24.399625 195.418292,25.274625 193.090573,25.274625" id="Fill-16"></path>
                    <path d="M208.458902,25 L208.458902,17.5475 C208.458902,15.8475 207.883229,15.3975 206.957147,15.3975 C206.004785,15.3975 205.429112,15.8475 205.429112,17.4975 L205.429112,25 L200.923849,25 L200.923849,8.57125 L205.429112,6.77125 L205.429112,12.74625 C206.255077,12.12125 207.181159,11.59625 208.734223,11.59625 C211.613837,11.59625 212.990446,13.52125 212.990446,16.9725 L212.990446,25 L208.458902,25 Z" id="Fill-18"></path>
                    <path d="M0,0 L0,10 L10.0116959,10 L10.0116959,30 L20.0233918,30 L20.0233918,10 L30.0350877,10 L30.0350877,0 L0,0 Z" id="Fill-20"></path>
                    <path d="M40.0467836,20 L40.0467836,10 L30.0350877,10 L30.0350877,30 L60.0701754,30 L60.0701754,20 L40.0467836,20 Z" id="Fill-22"></path>
                    <path d="M40.0467836,10 L60.0701754,10 L60.0701754,0 L40.0467836,0 L40.0467836,10 Z" id="Fill-24"></path>
                </g>
            </g>
        </g>
    </g>
</svg>